<!-- rapsobot-waiting-orchestrator-dark.svg -->
<svg width="500" height="300" viewBox="0 0 500 300" fill="none" xmlns="http://www.w3.org/2000/svg" role="img" aria-label="RAPSOBOT waiting illustration (dark)">
  <defs>
    <style>
      /* Background */
      .bg   { fill:#0D1117; }
      .g1   { fill:#161B22; }
      .g2   { fill:#21262D; }
      .g3   { fill:#30363D; }
      .g4   { fill:#484F58; opacity:.55; }

      /* Accents */
      .vio  { stroke:#8B5CF6; stroke-width:1.6; stroke-linecap:round; stroke-linejoin:round; }
      .vio2 { stroke:#A78BFA; stroke-width:1.2; stroke-linecap:round; stroke-linejoin:round; opacity:.55; }
      .vio3 { fill:#8B5CF6; opacity:.95; }
      .ice  { fill:#E6EDF3; opacity:.92; }
      .ice2 { fill:#E6EDF3; opacity:.68; }

      /* UI-like lines */
      .line { stroke:#30363D; stroke-width:1; opacity:.8; }
      .hair { stroke:#484F58; stroke-width:1; opacity:.55; }
    </style>

    <filter id="softGlow" x="-40%" y="-40%" width="180%" height="180%">
      <feGaussianBlur in="SourceGraphic" stdDeviation="1.6" result="blur"/>
      <feColorMatrix in="blur" type="matrix"
        values="1 0 0 0 0
                0 1 0 0 0
                0 0 1 0 0
                0 0 0 .35 0" />
      <feMerge>
        <feMergeNode/>
        <feMergeNode in="SourceGraphic"/>
      </feMerge>
    </filter>

    <filter id="panelShadow" x="-20%" y="-20%" width="160%" height="160%">
      <feOffset dx="0" dy="2" />
      <feGaussianBlur stdDeviation="3" result="s"/>
      <feColorMatrix in="s" type="matrix"
        values="0 0 0 0 0
                0 0 0 0 0
                0 0 0 0 0
                0 0 0 .35 0" />
      <feMerge>
        <feMergeNode/>
        <feMergeNode in="SourceGraphic"/>
      </feMerge>
    </filter>

    <clipPath id="scanClip">
      <rect x="0" y="0" width="500" height="300" rx="0" />
    </clipPath>
  </defs>

  <rect class="bg" x="0" y="0" width="500" height="300"/>

  <g id="site">
    <path class="g1" d="M28 220c46-26 90-40 140-45 62-6 106 4 156 20 47 15 92 21 148 12v48H28v-35z"/>
    <path class="g2" d="M40 232c34-18 76-28 128-33 66-6 110 4 162 20 45 14 88 18 130 10v36H40v-33z" opacity=".85"/>

    <g opacity=".85">
      <path class="g2" d="M318 92h114v106H318V92z"/>
      <path class="bg" d="M330 104h90v82h-90v-82z" opacity=".35"/>
      <path class="hair" d="M318 118h114"/>
      <path class="hair" d="M318 144h114"/>
      <path class="hair" d="M344 92v106"/>
      <path class="hair" d="M372 92v106"/>
      <path class="hair" d="M400 92v106"/>
    </g>

    <g opacity=".75">
      <path class="g3" d="M86 84h10v138H86V84z"/>
      <path class="g3" d="M82 92h182v8H82v-8z"/>
      <path class="g4" d="M236 100l-44 34h14l40-30-10-4z"/>
      <path class="g4" d="M138 100h4v58h-4z"/>
      <path class="g4" d="M190 100h4v44h-4z"/>
    </g>

    <path class="g3" d="M30 242h440v4H30z" opacity=".75"/>
  </g>

  <!-- Animated orchestration scan -->
  <g id="orchestration" clip-path="url(#scanClip)">
    <g opacity=".22">
      <circle cx="235" cy="140" r="52" class="vio2">
        <animate attributeName="opacity" values="0.08;0.22;0.08" dur="2.4s" repeatCount="indefinite"/>
      </circle>
      <circle cx="235" cy="140" r="74" class="vio2">
        <animate attributeName="opacity" values="0.06;0.18;0.06" dur="2.4s" repeatCount="indefinite"/>
      </circle>
      <!-- expanding ring -->
      <circle cx="235" cy="140" r="40" class="vio2" opacity="0.0">
        <animate attributeName="r" values="40;92" dur="2.4s" repeatCount="indefinite"/>
        <animate attributeName="opacity" values="0.0;0.18;0.0" dur="2.4s" repeatCount="indefinite"/>
      </circle>
    </g>

    <path class="vio2" d="M210 132 C 250 108, 282 104, 320 110"/>
    <path class="vio2" d="M214 150 C 252 170, 284 184, 316 194"/>
    <path class="vio2" d="M232 162 C 274 174, 300 160, 334 142"/>
  </g>

  <!-- Agents with subtle activity blink -->
  <g id="agents" filter="url(#softGlow)">
    <circle cx="332" cy="110" r="12" class="g2"/>
    <circle cx="332" cy="110" r="6" class="vio3">
      <animate attributeName="opacity" values="0.55;0.95;0.55" dur="1.2s" repeatCount="indefinite"/>
    </circle>
    <path class="line" d="M348 110h46" />
    <rect x="398" y="104" width="52" height="12" rx="6" class="g2" opacity=".9"/>
    <rect x="404" y="108" width="24" height="4" rx="2" class="g3" opacity=".9"/>
    <rect x="432" y="108" width="12" height="4" rx="2" class="g3" opacity=".65"/>

    <circle cx="324" cy="194" r="12" class="g2"/>
    <circle cx="324" cy="194" r="6" class="vio3">
      <animate attributeName="opacity" values="0.55;0.95;0.55" dur="1.2s" begin="0.25s" repeatCount="indefinite"/>
    </circle>
    <path class="line" d="M340 194h40" />
    <rect x="384" y="188" width="66" height="12" rx="6" class="g2" opacity=".9"/>
    <rect x="390" y="192" width="38" height="4" rx="2" class="g3" opacity=".9"/>
    <rect x="432" y="192" width="10" height="4" rx="2" class="g3" opacity=".65"/>

    <circle cx="346" cy="142" r="12" class="g2"/>
    <circle cx="346" cy="142" r="6" class="vio3">
      <animate attributeName="opacity" values="0.55;0.95;0.55" dur="1.2s" begin="0.5s" repeatCount="indefinite"/>
    </circle>
    <path class="line" d="M362 142h28" />
    <rect x="394" y="136" width="56" height="12" rx="6" class="g2" opacity=".9"/>
    <rect x="400" y="140" width="30" height="4" rx="2" class="g3" opacity=".9"/>
    <rect x="434" y="140" width="10" height="4" rx="2" class="g3" opacity=".65"/>
  </g>

  <!-- Robot + blinking hub -->
  <g id="robot" filter="url(#panelShadow)">
    <path class="g2" d="M116 206c22 16 58 16 82 0v20c-26 18-56 18-82 0v-20z" opacity=".95"/>
    <path class="g3" d="M110 205c26-18 70-18 96 0v10c-26-16-70-16-96 0v-10z" opacity=".85"/>

    <rect x="126" y="104" width="92" height="76" rx="18" class="g2"/>
    <rect x="136" y="120" width="72" height="34" rx="12" class="g1" opacity=".95"/>

    <circle cx="156" cy="137" r="4.2" class="ice"/>
    <circle cx="188" cy="137" r="4.2" class="ice"/>
    <circle cx="156" cy="137" r="1.6" class="bg" opacity=".35"/>
    <circle cx="188" cy="137" r="1.6" class="bg" opacity=".35"/>

    <path class="hair" d="M156 162h32"/>
    <path class="hair" d="M152 167h40" opacity=".45"/>

    <path class="vio" d="M172 104V86"/>
    <circle cx="172" cy="82" r="4.2" class="vio3"/>

    <path class="ice2" d="M165 148h18c7 0 12 4 12 10 0 5-4 9-10 10l10 12h-10l-9-11h-11v11h-10v-32z"
          transform="translate(-14 38) scale(.62)"/>

    <circle cx="218" cy="140" r="7" class="g2"/>
    <circle cx="218" cy="140" r="3.4" class="vio3">
      <animate attributeName="opacity" values="0.45;0.95;0.45" dur="1.2s" repeatCount="indefinite"/>
    </circle>

    <path class="vio" d="M225 136 C 255 114, 290 106, 320 110"/>
    <path class="vio" d="M224 146 C 254 170, 286 186, 316 194"/>
    <path class="vio" d="M224 152 C 266 168, 298 156, 334 142"/>
  </g>

  <g id="hints" opacity=".9">
    <path class="vio2" d="M92 196h22"/>
    <path class="vio2" d="M92 202h14"/>
    <circle cx="92" cy="196" r="2.2" class="vio3" opacity=".6"/>
  </g>
</svg>
