<svg xmlns="http://www.w3.org/2000/svg" xmlns:xlink="http://www.w3.org/1999/xlink" version="1.1" width="1000" height="1000" viewBox="0 0 1000 1000" xml:space="preserve">
<desc>Created with Fabric.js 3.5.0</desc>
<defs>
</defs>
<rect x="0" y="0" width="100%" height="100%" fill="#ffffff"/>
<g transform="matrix(1.8182 0 0 1.8182 520.0045 634.5153)" id="site">
<path style="stroke: none; stroke-width: 1; stroke-dasharray: none; stroke-linecap: butt; stroke-dashoffset: 0; stroke-linejoin: miter; stroke-miterlimit: 4; is-custom-font: none; font-file-url: none; fill: rgb(22,27,34); fill-rule: nonzero; opacity: 1;" transform=" translate(-250, -214.12)" d="M 28 220 c 46 -26 90 -40 140 -45 c 62 -6 106 4 156 20 c 47 15 92 21 148 12 v 48 H 28 v -35 z" stroke-linecap="round"/>
</g>
<g transform="matrix(1.8182 0 0 1.8182 520.0045 665.4247)" id="site">
<path style="stroke: none; stroke-width: 1; stroke-dasharray: none; stroke-linecap: butt; stroke-dashoffset: 0; stroke-linejoin: miter; stroke-miterlimit: 4; is-custom-font: none; font-file-url: none; fill: rgb(33,38,45); fill-rule: nonzero; opacity: 0.85;" transform=" translate(-250, -231.12)" d="M 40 232 c 34 -18 76 -28 128 -33 c 66 -6 110 4 162 20 c 45 14 88 18 130 10 v 36 H 40 v -33 z" stroke-linecap="round"/>
</g>
<g transform="matrix(1.8182 0 0 1.8182 747.2795 512.4777)" id="site">
<path style="stroke: none; stroke-width: 1; stroke-dasharray: none; stroke-linecap: butt; stroke-dashoffset: 0; stroke-linejoin: miter; stroke-miterlimit: 4; is-custom-font: none; font-file-url: none; fill: rgb(33,38,45); fill-rule: nonzero; opacity: 0.85;" transform=" translate(-375, -147)" d="M 318 96 h 114 v 102 H 318 V 96 z" stroke-linecap="round"/>
</g>
<g transform="matrix(1.8182 0 0 1.8182 747.2795 512.4777)" id="site">
<path style="stroke: none; stroke-width: 1; stroke-dasharray: none; stroke-linecap: butt; stroke-dashoffset: 0; stroke-linejoin: miter; stroke-miterlimit: 4; is-custom-font: none; font-file-url: none; fill: rgb(13,17,23); fill-rule: nonzero; opacity: 0.2975;" transform=" translate(-375, -147)" d="M 330 108 h 90 v 78 h -90 v -78 z" stroke-linecap="round"/>
</g>
<g transform="matrix(1.8182 0 0 1.8182 747.2795 467.0227)" id="site">
<path style="stroke: rgb(72,79,88); stroke-width: 1; stroke-dasharray: none; stroke-linecap: butt; stroke-dashoffset: 0; stroke-linejoin: miter; stroke-miterlimit: 4; is-custom-font: none; font-file-url: none; fill: none; fill-rule: nonzero; opacity: 0.4675;" transform=" translate(-375, -122)" d="M 318 122 h 114" stroke-linecap="round"/>
</g>
<g transform="matrix(1.8182 0 0 1.8182 747.2795 514.2959)" id="site">
<path style="stroke: rgb(72,79,88); stroke-width: 1; stroke-dasharray: none; stroke-linecap: butt; stroke-dashoffset: 0; stroke-linejoin: miter; stroke-miterlimit: 4; is-custom-font: none; font-file-url: none; fill: none; fill-rule: nonzero; opacity: 0.4675;" transform=" translate(-375, -148)" d="M 318 148 h 114" stroke-linecap="round"/>
</g>
<g transform="matrix(1.8182 0 0 1.8182 690.9153 512.4777)" id="site">
<path style="stroke: rgb(72,79,88); stroke-width: 1; stroke-dasharray: none; stroke-linecap: butt; stroke-dashoffset: 0; stroke-linejoin: miter; stroke-miterlimit: 4; is-custom-font: none; font-file-url: none; fill: none; fill-rule: nonzero; opacity: 0.4675;" transform=" translate(-344, -147)" d="M 344 96 v 102" stroke-linecap="round"/>
</g>
<g transform="matrix(1.8182 0 0 1.8182 741.8249 512.4777)" id="site">
<path style="stroke: rgb(72,79,88); stroke-width: 1; stroke-dasharray: none; stroke-linecap: butt; stroke-dashoffset: 0; stroke-linejoin: miter; stroke-miterlimit: 4; is-custom-font: none; font-file-url: none; fill: none; fill-rule: nonzero; opacity: 0.4675;" transform=" translate(-372, -147)" d="M 372 96 v 102" stroke-linecap="round"/>
</g>
<g transform="matrix(1.8182 0 0 1.8182 792.7345 512.4777)" id="site">
<path style="stroke: rgb(72,79,88); stroke-width: 1; stroke-dasharray: none; stroke-linecap: butt; stroke-dashoffset: 0; stroke-linejoin: miter; stroke-miterlimit: 4; is-custom-font: none; font-file-url: none; fill: none; fill-rule: nonzero; opacity: 0.4675;" transform=" translate(-400, -147)" d="M 400 96 v 102" stroke-linecap="round"/>
</g>
<g transform="matrix(1.8182 0 0 1.8182 520.0045 688.8431)" id="site">
<path style="stroke: none; stroke-width: 1; stroke-dasharray: none; stroke-linecap: butt; stroke-dashoffset: 0; stroke-linejoin: miter; stroke-miterlimit: 4; is-custom-font: none; font-file-url: none; fill: rgb(48,54,61); fill-rule: nonzero; opacity: 0.75;" transform=" translate(-250, -244)" d="M 30 242 h 440 v 4 H 30 z" stroke-linecap="round"/>
</g>
<g transform="matrix(1.8182 0 0 1.8182 558.1867 387.0219)" id="crane">
<path style="stroke: rgb(72,79,88); stroke-width: 1; stroke-dasharray: none; stroke-linecap: butt; stroke-dashoffset: 0; stroke-linejoin: miter; stroke-miterlimit: 4; is-custom-font: none; font-file-url: none; fill: none; fill-rule: nonzero; opacity: 0.429;" transform=" translate(-271, -78)" d="M 266 78 h 10" stroke-linecap="round"/>
</g>
<g transform="matrix(1.8182 0 0 1.8182 558.1867 434.2951)" id="crane">
<path style="stroke: rgb(72,79,88); stroke-width: 1; stroke-dasharray: none; stroke-linecap: butt; stroke-dashoffset: 0; stroke-linejoin: miter; stroke-miterlimit: 4; is-custom-font: none; font-file-url: none; fill: none; fill-rule: nonzero; opacity: 0.429;" transform=" translate(-271, -104)" d="M 266 104 h 10" stroke-linecap="round"/>
</g>
<g transform="matrix(1.8182 0 0 1.8182 558.1867 481.5683)" id="crane">
<path style="stroke: rgb(72,79,88); stroke-width: 1; stroke-dasharray: none; stroke-linecap: butt; stroke-dashoffset: 0; stroke-linejoin: miter; stroke-miterlimit: 4; is-custom-font: none; font-file-url: none; fill: none; fill-rule: nonzero; opacity: 0.429;" transform=" translate(-271, -130)" d="M 266 130 h 10" stroke-linecap="round"/>
</g>
<g transform="matrix(1.8182 0 0 1.8182 558.1867 528.8415)" id="crane">
<path style="stroke: rgb(72,79,88); stroke-width: 1; stroke-dasharray: none; stroke-linecap: butt; stroke-dashoffset: 0; stroke-linejoin: miter; stroke-miterlimit: 4; is-custom-font: none; font-file-url: none; fill: none; fill-rule: nonzero; opacity: 0.429;" transform=" translate(-271, -156)" d="M 266 156 h 10" stroke-linecap="round"/>
</g>
<g transform="matrix(1.8182 0 0 1.8182 558.1867 576.1147)" id="crane">
<path style="stroke: rgb(72,79,88); stroke-width: 1; stroke-dasharray: none; stroke-linecap: butt; stroke-dashoffset: 0; stroke-linejoin: miter; stroke-miterlimit: 4; is-custom-font: none; font-file-url: none; fill: none; fill-rule: nonzero; opacity: 0.429;" transform=" translate(-271, -182)" d="M 266 182 h 10" stroke-linecap="round"/>
</g>
<g transform="matrix(1.8182 0 0 1.8182 558.1867 623.3879)" id="crane">
<path style="stroke: rgb(72,79,88); stroke-width: 1; stroke-dasharray: none; stroke-linecap: butt; stroke-dashoffset: 0; stroke-linejoin: miter; stroke-miterlimit: 4; is-custom-font: none; font-file-url: none; fill: none; fill-rule: nonzero; opacity: 0.429;" transform=" translate(-271, -208)" d="M 266 208 h 10" stroke-linecap="round"/>
</g>
<g transform="matrix(1.8182 0 0 1.8182 734.5521 468.8409)" id="crane">
<path style="stroke: none; stroke-width: 1; stroke-dasharray: none; stroke-linecap: butt; stroke-dashoffset: 0; stroke-linejoin: miter; stroke-miterlimit: 4; is-custom-font: none; font-file-url: none; fill: rgb(72,79,88); fill-rule: nonzero; opacity: 0.429;" transform=" translate(-368, -123)" d="M 358 120 h 20 v 6 h -20 z" stroke-linecap="round"/>
</g>
<g transform="matrix(1.8182 0 0 1.8182 736.3703 487.0229)" id="crane">
<path style="stroke: none; stroke-width: 1; stroke-dasharray: none; stroke-linecap: butt; stroke-dashoffset: 0; stroke-linejoin: miter; stroke-miterlimit: 4; is-custom-font: none; font-file-url: none; fill: rgb(72,79,88); fill-rule: nonzero; opacity: 0.429;" transform=" translate(-369, -133)" d="M 368 126 h 2 v 14 h -2 z" stroke-linecap="round"/>
</g>
<g transform="matrix(1.8182 0 0 1.8182 736.3703 505.2049)" id="crane">
<path style="stroke: none; stroke-width: 1; stroke-dasharray: none; stroke-linecap: butt; stroke-dashoffset: 0; stroke-linejoin: miter; stroke-miterlimit: 4; is-custom-font: none; font-file-url: none; fill: rgb(72,79,88); fill-rule: nonzero; opacity: 0.429;" transform=" translate(-369, -143)" d="M 364 140 h 10 v 6 h -10 z" stroke-linecap="round"/>
</g>
<g transform="matrix(1.8182 0 0 1.8182 492.7315 499.7503)" id="orchestration" clip-path="url(#CLIPPATH_34)">
<clipPath id="CLIPPATH_34">
	<rect transform="matrix(1 0 0 1 15 10)" id="scanClip" x="-250" y="-150" rx="0" ry="0" width="500" height="300"/>
</clipPath>
<circle style="stroke: rgb(167,139,250); stroke-width: 1.2; stroke-dasharray: none; stroke-linecap: round; stroke-dashoffset: 0; stroke-linejoin: round; stroke-miterlimit: 4; is-custom-font: none; font-file-url: none; fill: none; fill-rule: nonzero; opacity: 0.55;" cx="0" cy="0" r="74"/>
</g>
<g transform="matrix(1.8182 0 0 1.8182 492.7315 499.7503)" id="orchestration" clip-path="url(#CLIPPATH_35)">
<clipPath id="CLIPPATH_35">
	<rect transform="matrix(1 0 0 1 15 10)" id="scanClip" x="-250" y="-150" rx="0" ry="0" width="500" height="300"/>
</clipPath>
<circle style="stroke: rgb(167,139,250); stroke-width: 1.2; stroke-dasharray: none; stroke-linecap: round; stroke-dashoffset: 0; stroke-linejoin: round; stroke-miterlimit: 4; is-custom-font: none; font-file-url: none; fill: none; fill-rule: nonzero; opacity: 0.55;" cx="0" cy="0" r="52"/>
</g>
<g transform="matrix(1.8182 0 0 1.8182 547.2775 462.9524)" id="orchestration" clip-path="url(#CLIPPATH_36)">
<clipPath id="CLIPPATH_36">
	<rect transform="matrix(1 0 0 1 -15 30.2386)" id="scanClip" x="-250" y="-150" rx="0" ry="0" width="500" height="300"/>
</clipPath>
<path style="stroke: rgb(167,139,250); stroke-width: 1.2; stroke-dasharray: none; stroke-linecap: round; stroke-dashoffset: 0; stroke-linejoin: round; stroke-miterlimit: 4; is-custom-font: none; font-file-url: none; fill: none; fill-rule: nonzero; opacity: 0.55;" transform=" translate(-265, -119.7614)" d="M 210 132 C 250 108 282 104 320 110" stroke-linecap="round"/>
</g>
<g transform="matrix(1.8182 0 0 1.8182 547.2775 557.9327)" id="orchestration" clip-path="url(#CLIPPATH_37)">
<clipPath id="CLIPPATH_37">
	<rect transform="matrix(1 0 0 1 -15 -22)" id="scanClip" x="-250" y="-150" rx="0" ry="0" width="500" height="300"/>
</clipPath>
<path style="stroke: rgb(167,139,250); stroke-width: 1.2; stroke-dasharray: none; stroke-linecap: round; stroke-dashoffset: 0; stroke-linejoin: round; stroke-miterlimit: 4; is-custom-font: none; font-file-url: none; fill: none; fill-rule: nonzero; opacity: 0.55;" transform=" translate(-265, -172)" d="M 214 150 C 252 170 284 184 316 194" stroke-linecap="round"/>
</g>
<g transform="matrix(1.8182 0 0 1.8182 580.0051 525.636)" id="orchestration" clip-path="url(#CLIPPATH_38)">
<clipPath id="CLIPPATH_38">
	<rect transform="matrix(1 0 0 1 -33 -4.237)" id="scanClip" x="-250" y="-150" rx="0" ry="0" width="500" height="300"/>
</clipPath>
<path style="stroke: rgb(167,139,250); stroke-width: 1.2; stroke-dasharray: none; stroke-linecap: round; stroke-dashoffset: 0; stroke-linejoin: round; stroke-miterlimit: 4; is-custom-font: none; font-file-url: none; fill: none; fill-rule: nonzero; opacity: 0.55;" transform=" translate(-283, -154.237)" d="M 232 162 C 274 174 300 160 334 142" stroke-linecap="round"/>
</g>
<g transform="matrix(1.8182 0 0 1.8182 669.0969 445.2043)" id="agents">
<circle style="stroke: none; stroke-width: 1; stroke-dasharray: none; stroke-linecap: butt; stroke-dashoffset: 0; stroke-linejoin: miter; stroke-miterlimit: 4; is-custom-font: none; font-file-url: none; fill: rgb(33,38,45); fill-rule: nonzero; opacity: 1;" cx="0" cy="0" r="12"/>
</g>
<g transform="matrix(1.8182 0 0 1.8182 669.0969 445.2043)" id="agents">
<circle style="stroke: none; stroke-width: 1; stroke-dasharray: none; stroke-linecap: butt; stroke-dashoffset: 0; stroke-linejoin: miter; stroke-miterlimit: 4; is-custom-font: none; font-file-url: none; fill: rgb(139,92,246); fill-rule: nonzero; opacity: 0.95;" cx="0" cy="0" r="6"/>
</g>
<g transform="matrix(1.8182 0 0 1.8182 740.0067 445.2043)" id="agents">
<path style="stroke: rgb(48,54,61); stroke-width: 1; stroke-dasharray: none; stroke-linecap: butt; stroke-dashoffset: 0; stroke-linejoin: miter; stroke-miterlimit: 4; is-custom-font: none; font-file-url: none; fill: none; fill-rule: nonzero; opacity: 0.8;" transform=" translate(-371, -110)" d="M 348 110 h 46" stroke-linecap="round"/>
</g>
<g transform="matrix(1.8182 0 0 1.8182 836.3713 445.2043)" id="agents">
<rect style="stroke: none; stroke-width: 1; stroke-dasharray: none; stroke-linecap: butt; stroke-dashoffset: 0; stroke-linejoin: miter; stroke-miterlimit: 4; is-custom-font: none; font-file-url: none; fill: rgb(33,38,45); fill-rule: nonzero; opacity: 0.9;" x="-26" y="-6" rx="6" ry="6" width="52" height="12"/>
</g>
<g transform="matrix(1.8182 0 0 1.8182 821.8257 445.2043)" id="agents">
<rect style="stroke: none; stroke-width: 1; stroke-dasharray: none; stroke-linecap: butt; stroke-dashoffset: 0; stroke-linejoin: miter; stroke-miterlimit: 4; is-custom-font: none; font-file-url: none; fill: rgb(48,54,61); fill-rule: nonzero; opacity: 0.9;" x="-12" y="-2" rx="2" ry="2" width="24" height="4"/>
</g>
<g transform="matrix(1.8182 0 0 1.8182 861.8261 445.2043)" id="agents">
<rect style="stroke: none; stroke-width: 1; stroke-dasharray: none; stroke-linecap: butt; stroke-dashoffset: 0; stroke-linejoin: miter; stroke-miterlimit: 4; is-custom-font: none; font-file-url: none; fill: rgb(48,54,61); fill-rule: nonzero; opacity: 0.65;" x="-6" y="-2" rx="2" ry="2" width="12" height="4"/>
</g>
<g transform="matrix(1.8182 0 0 1.8182 654.5513 597.9331)" id="agents">
<circle style="stroke: none; stroke-width: 1; stroke-dasharray: none; stroke-linecap: butt; stroke-dashoffset: 0; stroke-linejoin: miter; stroke-miterlimit: 4; is-custom-font: none; font-file-url: none; fill: rgb(33,38,45); fill-rule: nonzero; opacity: 1;" cx="0" cy="0" r="12"/>
</g>
<g transform="matrix(1.8182 0 0 1.8182 654.5513 597.9331)" id="agents">
<circle style="stroke: none; stroke-width: 1; stroke-dasharray: none; stroke-linecap: butt; stroke-dashoffset: 0; stroke-linejoin: miter; stroke-miterlimit: 4; is-custom-font: none; font-file-url: none; fill: rgb(139,92,246); fill-rule: nonzero; opacity: 0.95;" cx="0" cy="0" r="6"/>
</g>
<g transform="matrix(1.8182 0 0 1.8182 720.0065 597.9331)" id="agents">
<path style="stroke: rgb(48,54,61); stroke-width: 1; stroke-dasharray: none; stroke-linecap: butt; stroke-dashoffset: 0; stroke-linejoin: miter; stroke-miterlimit: 4; is-custom-font: none; font-file-url: none; fill: none; fill-rule: nonzero; opacity: 0.8;" transform=" translate(-360, -194)" d="M 340 194 h 40" stroke-linecap="round"/>
</g>
<g transform="matrix(1.8182 0 0 1.8182 823.6439 597.9331)" id="agents">
<rect style="stroke: none; stroke-width: 1; stroke-dasharray: none; stroke-linecap: butt; stroke-dashoffset: 0; stroke-linejoin: miter; stroke-miterlimit: 4; is-custom-font: none; font-file-url: none; fill: rgb(33,38,45); fill-rule: nonzero; opacity: 0.9;" x="-33" y="-6" rx="6" ry="6" width="66" height="12"/>
</g>
<g transform="matrix(1.8182 0 0 1.8182 809.0983 597.9331)" id="agents">
<rect style="stroke: none; stroke-width: 1; stroke-dasharray: none; stroke-linecap: butt; stroke-dashoffset: 0; stroke-linejoin: miter; stroke-miterlimit: 4; is-custom-font: none; font-file-url: none; fill: rgb(48,54,61); fill-rule: nonzero; opacity: 0.9;" x="-19" y="-2" rx="2" ry="2" width="38" height="4"/>
</g>
<g transform="matrix(1.8182 0 0 1.8182 860.0079 597.9331)" id="agents">
<rect style="stroke: none; stroke-width: 1; stroke-dasharray: none; stroke-linecap: butt; stroke-dashoffset: 0; stroke-linejoin: miter; stroke-miterlimit: 4; is-custom-font: none; font-file-url: none; fill: rgb(48,54,61); fill-rule: nonzero; opacity: 0.65;" x="-5" y="-2" rx="2" ry="2" width="10" height="4"/>
</g>
<g transform="matrix(1.8182 0 0 1.8182 694.5517 503.3867)" id="agents">
<circle style="stroke: none; stroke-width: 1; stroke-dasharray: none; stroke-linecap: butt; stroke-dashoffset: 0; stroke-linejoin: miter; stroke-miterlimit: 4; is-custom-font: none; font-file-url: none; fill: rgb(33,38,45); fill-rule: nonzero; opacity: 1;" cx="0" cy="0" r="12"/>
</g>
<g transform="matrix(1.8182 0 0 1.8182 694.5517 503.3867)" id="agents">
<circle style="stroke: none; stroke-width: 1; stroke-dasharray: none; stroke-linecap: butt; stroke-dashoffset: 0; stroke-linejoin: miter; stroke-miterlimit: 4; is-custom-font: none; font-file-url: none; fill: rgb(139,92,246); fill-rule: nonzero; opacity: 0.95;" cx="0" cy="0" r="6"/>
</g>
<g transform="matrix(1.8182 0 0 1.8182 749.0977 503.3867)" id="agents">
<path style="stroke: rgb(48,54,61); stroke-width: 1; stroke-dasharray: none; stroke-linecap: butt; stroke-dashoffset: 0; stroke-linejoin: miter; stroke-miterlimit: 4; is-custom-font: none; font-file-url: none; fill: none; fill-rule: nonzero; opacity: 0.8;" transform=" translate(-376, -142)" d="M 362 142 h 28" stroke-linecap="round"/>
</g>
<g transform="matrix(1.8182 0 0 1.8182 832.7349 503.3867)" id="agents">
<rect style="stroke: none; stroke-width: 1; stroke-dasharray: none; stroke-linecap: butt; stroke-dashoffset: 0; stroke-linejoin: miter; stroke-miterlimit: 4; is-custom-font: none; font-file-url: none; fill: rgb(33,38,45); fill-rule: nonzero; opacity: 0.9;" x="-28" y="-6" rx="6" ry="6" width="56" height="12"/>
</g>
<g transform="matrix(1.8182 0 0 1.8182 820.0075 503.3867)" id="agents">
<rect style="stroke: none; stroke-width: 1; stroke-dasharray: none; stroke-linecap: butt; stroke-dashoffset: 0; stroke-linejoin: miter; stroke-miterlimit: 4; is-custom-font: none; font-file-url: none; fill: rgb(48,54,61); fill-rule: nonzero; opacity: 0.9;" x="-15" y="-2" rx="2" ry="2" width="30" height="4"/>
</g>
<g transform="matrix(1.8182 0 0 1.8182 863.6443 503.3867)" id="agents">
<rect style="stroke: none; stroke-width: 1; stroke-dasharray: none; stroke-linecap: butt; stroke-dashoffset: 0; stroke-linejoin: miter; stroke-miterlimit: 4; is-custom-font: none; font-file-url: none; fill: rgb(48,54,61); fill-rule: nonzero; opacity: 0.65;" x="-5" y="-2" rx="2" ry="2" width="10" height="4"/>
</g>
<g transform="matrix(1.8182 0 0 1.8182 354.5483 655.6609)" id="robot">
<path style="stroke: none; stroke-width: 1; stroke-dasharray: none; stroke-linecap: butt; stroke-dashoffset: 0; stroke-linejoin: miter; stroke-miterlimit: 4; is-custom-font: none; font-file-url: none; fill: rgb(33,38,45); fill-rule: nonzero; opacity: 0.92;" transform=" translate(-159, -225.75)" d="M 118 210 c 22 16 58 16 82 0 v 18 c -26 18 -56 18 -82 0 v -18 z" stroke-linecap="round"/>
</g>
<g transform="matrix(1.8182 0 0 1.8182 375.9121 423.4767)" id="robot">
<path style="stroke: none; stroke-width: 1; stroke-dasharray: none; stroke-linecap: butt; stroke-dashoffset: 0; stroke-linejoin: miter; stroke-miterlimit: 4; is-custom-font: none; font-file-url: none; fill: rgb(33,38,45); fill-rule: nonzero; opacity: 1;" transform=" translate(-168, -92)" d="M 152 92 Q 152 86 158 86 H 178 Q 184 86 184 92 V 98 H 152 V 92 Z" stroke-linecap="round"/>
</g>
<g transform="matrix(1.8182 0 0 2.6581 375.9121 403.1393)" id="robot">
<rect style="stroke: none; stroke-width: 1; stroke-dasharray: none; stroke-linecap: butt; stroke-dashoffset: 0; stroke-linejoin: miter; stroke-miterlimit: 4; is-custom-font: none; font-file-url: none; fill: rgb(33,38,45); fill-rule: nonzero; opacity: 1;" x="-4" y="-7" rx="3" ry="3" width="8" height="14"/>
</g>
<g transform="matrix(1.8182 0 0 1.8182 375.9121 381.5671)" id="robot">
<circle style="stroke: none; stroke-width: 1; stroke-dasharray: none; stroke-linecap: butt; stroke-dashoffset: 0; stroke-linejoin: miter; stroke-miterlimit: 4; is-custom-font: none; font-file-url: none; fill: rgb(33,38,45); fill-rule: nonzero; opacity: 1;" cx="0" cy="0" r="7"/>
</g>
<g transform="matrix(1.8182 0 0 1.8182 375.9121 381.5671)" id="robot">
<circle style="stroke: none; stroke-width: 1; stroke-dasharray: none; stroke-linecap: butt; stroke-dashoffset: 0; stroke-linejoin: miter; stroke-miterlimit: 4; is-custom-font: none; font-file-url: none; fill: rgb(139,92,246); fill-rule: nonzero; opacity: 0.95;" cx="0" cy="0" r="3.2"/>
</g>
<g transform="matrix(1.8182 0 0 1.8182 378.1849 501.5685)" id="robot">
<rect style="stroke: none; stroke-width: 1; stroke-dasharray: none; stroke-linecap: butt; stroke-dashoffset: 0; stroke-linejoin: miter; stroke-miterlimit: 4; is-custom-font: none; font-file-url: none; fill: rgb(33,38,45); fill-rule: nonzero; opacity: 1;" x="-46" y="-43" rx="22" ry="22" width="92" height="86"/>
</g>
<g transform="matrix(1.8182 0 0 1.8182 295.4567 501.5685)" id="robot">
<path style="stroke: none; stroke-width: 1; stroke-dasharray: none; stroke-linecap: butt; stroke-dashoffset: 0; stroke-linejoin: miter; stroke-miterlimit: 4; is-custom-font: none; font-file-url: none; fill: rgb(33,38,45); fill-rule: nonzero; opacity: 1;" transform=" translate(-121, -141)" d="M 126 120 L 116 128 V 154 L 126 162 Z" stroke-linecap="round"/>
</g>
<g transform="matrix(1.8182 0 0 1.8182 460.9131 501.5685)" id="robot">
<path style="stroke: none; stroke-width: 1; stroke-dasharray: none; stroke-linecap: butt; stroke-dashoffset: 0; stroke-linejoin: miter; stroke-miterlimit: 4; is-custom-font: none; font-file-url: none; fill: rgb(33,38,45); fill-rule: nonzero; opacity: 1;" transform=" translate(-223, -141)" d="M 218 120 L 228 128 V 154 L 218 162 Z" stroke-linecap="round"/>
</g>
<g transform="matrix(2.7924 0 0 2.204 379.904 499.9997)" id="robot">
<path style="stroke: none; stroke-width: 1; stroke-dasharray: none; stroke-linecap: butt; stroke-dashoffset: 0; stroke-linejoin: miter; stroke-miterlimit: 4; is-custom-font: none; font-file-url: none; fill: rgb(13,17,23); fill-rule: nonzero; opacity: 0.72;" transform=" translate(-170.5, -147)" d="M 150 164 V 124 H 171 C 182 124 189 130 189 140 C 189 148 184 154 175 155 L 191 170 H 178 L 164 156 H 159 V 170 H 150 V 164 Z M 159 132 V 148 H 170 C 176 148 180 145 180 140 C 180 135 176 132 170 132 H 159 Z" stroke-linecap="round"/>
</g>
<g transform="matrix(1.8182 0 0 1.8182 362.0785 485.4775)" id="robot">
<circle style="stroke: none; stroke-width: 1; stroke-dasharray: none; stroke-linecap: butt; stroke-dashoffset: 0; stroke-linejoin: miter; stroke-miterlimit: 4; is-custom-font: none; font-file-url: none; fill: rgb(19,23,29); fill-rule: nonzero; opacity: 0.95;" cx="0" cy="0" r="3.8"/>
</g>
<g transform="matrix(1.8182 0 0 1.8182 382.0787 485.4775)" id="robot">
<circle style="stroke: none; stroke-width: 1; stroke-dasharray: none; stroke-linecap: butt; stroke-dashoffset: 0; stroke-linejoin: miter; stroke-miterlimit: 4; is-custom-font: none; font-file-url: none; fill: rgb(19,23,29); fill-rule: nonzero; opacity: 0.95;" cx="0" cy="0" r="3.8"/>
</g>
<g transform="matrix(1.8182 0 0 1.8182 461.8221 507.0231)" id="robot">
<circle style="stroke: none; stroke-width: 1; stroke-dasharray: none; stroke-linecap: butt; stroke-dashoffset: 0; stroke-linejoin: miter; stroke-miterlimit: 4; is-custom-font: none; font-file-url: none; fill: rgb(33,38,45); fill-rule: nonzero; opacity: 1;" cx="0" cy="0" r="7"/>
</g>
<g transform="matrix(1.8182 0 0 1.8182 461.8221 507.0231)" id="robot">
<circle style="stroke: none; stroke-width: 1; stroke-dasharray: none; stroke-linecap: butt; stroke-dashoffset: 0; stroke-linejoin: miter; stroke-miterlimit: 4; is-custom-font: none; font-file-url: none; fill: rgb(139,92,246); fill-rule: nonzero; opacity: 0.95;" cx="0" cy="0" r="3.4"/>
</g>
<g transform="matrix(1.8182 0 0 1.8182 560.914 471.5921)" id="robot">
<path style="stroke: rgb(139,92,246); stroke-width: 1.6; stroke-dasharray: none; stroke-linecap: round; stroke-dashoffset: 0; stroke-linejoin: round; stroke-miterlimit: 4; is-custom-font: none; font-file-url: none; fill: none; fill-rule: nonzero; opacity: 1;" transform=" translate(-272.5, -124.5131)" d="M 225 140 C 255 114 290 106 320 110" stroke-linecap="round"/>
</g>
<g transform="matrix(1.8182 0 0 1.8182 556.3685 557.9327)" id="robot">
<path style="stroke: rgb(139,92,246); stroke-width: 1.6; stroke-dasharray: none; stroke-linecap: round; stroke-dashoffset: 0; stroke-linejoin: round; stroke-miterlimit: 4; is-custom-font: none; font-file-url: none; fill: none; fill-rule: nonzero; opacity: 1;" transform=" translate(-270, -172)" d="M 224 150 C 254 170 286 186 316 194" stroke-linecap="round"/>
</g>
<g transform="matrix(1.8182 0 0 1.8182 572.7323 520.5883)" id="robot">
<path style="stroke: rgb(139,92,246); stroke-width: 1.6; stroke-dasharray: none; stroke-linecap: round; stroke-dashoffset: 0; stroke-linejoin: round; stroke-miterlimit: 4; is-custom-font: none; font-file-url: none; fill: none; fill-rule: nonzero; opacity: 1;" transform=" translate(-279, -151.4608)" d="M 224 156 C 266 168 298 156 334 142" stroke-linecap="round"/>
</g>
<g transform="matrix(1.8182 0 0 1.8182 386.4577 559.0874)" id="hints">
<path style="stroke: rgb(167,139,250); stroke-width: 1.2; stroke-dasharray: none; stroke-linecap: round; stroke-dashoffset: 0; stroke-linejoin: round; stroke-miterlimit: 4; is-custom-font: none; font-file-url: none; fill: none; fill-rule: nonzero; opacity: 0.495;" transform=" translate(-101, -206)" d="M 92 206 h 18" stroke-linecap="round"/>
</g>
<g transform="matrix(1.8182 0 0 1.8182 381.0031 569.9966)" id="hints">
<path style="stroke: rgb(167,139,250); stroke-width: 1.2; stroke-dasharray: none; stroke-linecap: round; stroke-dashoffset: 0; stroke-linejoin: round; stroke-miterlimit: 4; is-custom-font: none; font-file-url: none; fill: none; fill-rule: nonzero; opacity: 0.495;" transform=" translate(-98, -212)" d="M 92 212 h 12" stroke-linecap="round"/>
</g>
<g transform="matrix(1.8182 0 0 1.8182 370.0938 559.0874)" id="hints">
<circle style="stroke: none; stroke-width: 1; stroke-dasharray: none; stroke-linecap: butt; stroke-dashoffset: 0; stroke-linejoin: miter; stroke-miterlimit: 4; is-custom-font: none; font-file-url: none; fill: rgb(139,92,246); fill-rule: nonzero; opacity: 0.855;" cx="0" cy="0" r="2.2"/>
</g>
</svg>