<svg xmlns="http://www.w3.org/2000/svg" xmlns:xlink="http://www.w3.org/1999/xlink" version="1.1" width="1000" height="1000" viewBox="0 0 1000 1000" xml:space="preserve">
<desc>Created with Fabric.js 3.5.0</desc>
<defs>
</defs>
<rect x="0" y="0" width="100%" height="100%" fill="rgba(255,255,255,0)"/>
<g transform="matrix(1.2346 0 0 1.2346 499.4568 455.4405)" id="317317">
<g style="">
		<g transform="matrix(1.8182 0 0 1.8182 0 88.4918)" id="site">
<path style="stroke: none; stroke-width: 1; stroke-dasharray: none; stroke-linecap: butt; stroke-dashoffset: 0; stroke-linejoin: miter; stroke-miterlimit: 4; is-custom-font: none; font-file-url: none; fill: rgb(22,27,34); fill-rule: nonzero; opacity: 1;" transform=" translate(-250, -214.12)" d="M 28 220 c 46 -26 90 -40 140 -45 c 62 -6 106 4 156 20 c 47 15 92 21 148 12 v 48 H 28 v -35 z" stroke-linecap="round"/>
</g>
		<g transform="matrix(1.8182 0 0 1.8182 0 119.4012)" id="site">
<path style="stroke: none; stroke-width: 1; stroke-dasharray: none; stroke-linecap: butt; stroke-dashoffset: 0; stroke-linejoin: miter; stroke-miterlimit: 4; is-custom-font: none; font-file-url: none; fill: rgb(33,38,45); fill-rule: nonzero; opacity: 0.85;" transform=" translate(-250, -231.12)" d="M 40 232 c 34 -18 76 -28 128 -33 c 66 -6 110 4 162 20 c 45 14 88 18 130 10 v 36 H 40 v -33 z" stroke-linecap="round"/>
</g>
		<g transform="matrix(1.8182 0 0 1.8182 227.275 -33.5458)" id="site">
<path style="stroke: none; stroke-width: 1; stroke-dasharray: none; stroke-linecap: butt; stroke-dashoffset: 0; stroke-linejoin: miter; stroke-miterlimit: 4; is-custom-font: none; font-file-url: none; fill: rgb(33,38,45); fill-rule: nonzero; opacity: 0.85;" transform=" translate(-375, -147)" d="M 318 96 h 114 v 102 H 318 V 96 z" stroke-linecap="round"/>
</g>
		<g transform="matrix(1.8182 0 0 1.8182 227.275 -33.5458)" id="site">
<path style="stroke: none; stroke-width: 1; stroke-dasharray: none; stroke-linecap: butt; stroke-dashoffset: 0; stroke-linejoin: miter; stroke-miterlimit: 4; is-custom-font: none; font-file-url: none; fill: rgb(13,17,23); fill-rule: nonzero; opacity: 0.2975;" transform=" translate(-375, -147)" d="M 330 108 h 90 v 78 h -90 v -78 z" stroke-linecap="round"/>
</g>
		<g transform="matrix(1.8182 0 0 1.8182 227.275 -79.0008)" id="site">
<path style="stroke: rgb(72,79,88); stroke-width: 1; stroke-dasharray: none; stroke-linecap: butt; stroke-dashoffset: 0; stroke-linejoin: miter; stroke-miterlimit: 4; is-custom-font: none; font-file-url: none; fill: none; fill-rule: nonzero; opacity: 0.4675;" transform=" translate(-375, -122)" d="M 318 122 h 114" stroke-linecap="round"/>
</g>
		<g transform="matrix(1.8182 0 0 1.8182 227.275 -31.7276)" id="site">
<path style="stroke: rgb(72,79,88); stroke-width: 1; stroke-dasharray: none; stroke-linecap: butt; stroke-dashoffset: 0; stroke-linejoin: miter; stroke-miterlimit: 4; is-custom-font: none; font-file-url: none; fill: none; fill-rule: nonzero; opacity: 0.4675;" transform=" translate(-375, -148)" d="M 318 148 h 114" stroke-linecap="round"/>
</g>
		<g transform="matrix(1.8182 0 0 1.8182 170.9108 -33.5458)" id="site">
<path style="stroke: rgb(72,79,88); stroke-width: 1; stroke-dasharray: none; stroke-linecap: butt; stroke-dashoffset: 0; stroke-linejoin: miter; stroke-miterlimit: 4; is-custom-font: none; font-file-url: none; fill: none; fill-rule: nonzero; opacity: 0.4675;" transform=" translate(-344, -147)" d="M 344 96 v 102" stroke-linecap="round"/>
</g>
		<g transform="matrix(1.8182 0 0 1.8182 221.8204 -33.5458)" id="site">
<path style="stroke: rgb(72,79,88); stroke-width: 1; stroke-dasharray: none; stroke-linecap: butt; stroke-dashoffset: 0; stroke-linejoin: miter; stroke-miterlimit: 4; is-custom-font: none; font-file-url: none; fill: none; fill-rule: nonzero; opacity: 0.4675;" transform=" translate(-372, -147)" d="M 372 96 v 102" stroke-linecap="round"/>
</g>
		<g transform="matrix(1.8182 0 0 1.8182 272.73 -33.5458)" id="site">
<path style="stroke: rgb(72,79,88); stroke-width: 1; stroke-dasharray: none; stroke-linecap: butt; stroke-dashoffset: 0; stroke-linejoin: miter; stroke-miterlimit: 4; is-custom-font: none; font-file-url: none; fill: none; fill-rule: nonzero; opacity: 0.4675;" transform=" translate(-400, -147)" d="M 400 96 v 102" stroke-linecap="round"/>
</g>
		<g transform="matrix(1.8182 0 0 1.8182 0 142.8196)" id="site">
<path style="stroke: none; stroke-width: 1; stroke-dasharray: none; stroke-linecap: butt; stroke-dashoffset: 0; stroke-linejoin: miter; stroke-miterlimit: 4; is-custom-font: none; font-file-url: none; fill: rgb(48,54,61); fill-rule: nonzero; opacity: 0.75;" transform=" translate(-250, -244)" d="M 30 242 h 440 v 4 H 30 z" stroke-linecap="round"/>
</g>
		<g transform="matrix(1.8182 0 0 1.8182 38.1822 -159.0016)" id="crane">
<path style="stroke: rgb(72,79,88); stroke-width: 1; stroke-dasharray: none; stroke-linecap: butt; stroke-dashoffset: 0; stroke-linejoin: miter; stroke-miterlimit: 4; is-custom-font: none; font-file-url: none; fill: none; fill-rule: nonzero; opacity: 0.429;" transform=" translate(-271, -78)" d="M 266 78 h 10" stroke-linecap="round"/>
</g>
		<g transform="matrix(1.8182 0 0 1.8182 38.1822 -111.7284)" id="crane">
<path style="stroke: rgb(72,79,88); stroke-width: 1; stroke-dasharray: none; stroke-linecap: butt; stroke-dashoffset: 0; stroke-linejoin: miter; stroke-miterlimit: 4; is-custom-font: none; font-file-url: none; fill: none; fill-rule: nonzero; opacity: 0.429;" transform=" translate(-271, -104)" d="M 266 104 h 10" stroke-linecap="round"/>
</g>
		<g transform="matrix(1.8182 0 0 1.8182 38.1822 -64.4552)" id="crane">
<path style="stroke: rgb(72,79,88); stroke-width: 1; stroke-dasharray: none; stroke-linecap: butt; stroke-dashoffset: 0; stroke-linejoin: miter; stroke-miterlimit: 4; is-custom-font: none; font-file-url: none; fill: none; fill-rule: nonzero; opacity: 0.429;" transform=" translate(-271, -130)" d="M 266 130 h 10" stroke-linecap="round"/>
</g>
		<g transform="matrix(1.8182 0 0 1.8182 38.1822 -17.182)" id="crane">
<path style="stroke: rgb(72,79,88); stroke-width: 1; stroke-dasharray: none; stroke-linecap: butt; stroke-dashoffset: 0; stroke-linejoin: miter; stroke-miterlimit: 4; is-custom-font: none; font-file-url: none; fill: none; fill-rule: nonzero; opacity: 0.429;" transform=" translate(-271, -156)" d="M 266 156 h 10" stroke-linecap="round"/>
</g>
		<g transform="matrix(1.8182 0 0 1.8182 38.1822 30.0912)" id="crane">
<path style="stroke: rgb(72,79,88); stroke-width: 1; stroke-dasharray: none; stroke-linecap: butt; stroke-dashoffset: 0; stroke-linejoin: miter; stroke-miterlimit: 4; is-custom-font: none; font-file-url: none; fill: none; fill-rule: nonzero; opacity: 0.429;" transform=" translate(-271, -182)" d="M 266 182 h 10" stroke-linecap="round"/>
</g>
		<g transform="matrix(1.8182 0 0 1.8182 38.1822 77.3644)" id="crane">
<path style="stroke: rgb(72,79,88); stroke-width: 1; stroke-dasharray: none; stroke-linecap: butt; stroke-dashoffset: 0; stroke-linejoin: miter; stroke-miterlimit: 4; is-custom-font: none; font-file-url: none; fill: none; fill-rule: nonzero; opacity: 0.429;" transform=" translate(-271, -208)" d="M 266 208 h 10" stroke-linecap="round"/>
</g>
		<g transform="matrix(1.8182 0 0 1.8182 214.5476 -77.1826)" id="crane">
<path style="stroke: none; stroke-width: 1; stroke-dasharray: none; stroke-linecap: butt; stroke-dashoffset: 0; stroke-linejoin: miter; stroke-miterlimit: 4; is-custom-font: none; font-file-url: none; fill: rgb(72,79,88); fill-rule: nonzero; opacity: 0.429;" transform=" translate(-368, -123)" d="M 358 120 h 20 v 6 h -20 z" stroke-linecap="round"/>
</g>
		<g transform="matrix(1.8182 0 0 1.8182 216.3658 -59.0006)" id="crane">
<path style="stroke: none; stroke-width: 1; stroke-dasharray: none; stroke-linecap: butt; stroke-dashoffset: 0; stroke-linejoin: miter; stroke-miterlimit: 4; is-custom-font: none; font-file-url: none; fill: rgb(72,79,88); fill-rule: nonzero; opacity: 0.429;" transform=" translate(-369, -133)" d="M 368 126 h 2 v 14 h -2 z" stroke-linecap="round"/>
</g>
		<g transform="matrix(1.8182 0 0 1.8182 216.3658 -40.8186)" id="crane">
<path style="stroke: none; stroke-width: 1; stroke-dasharray: none; stroke-linecap: butt; stroke-dashoffset: 0; stroke-linejoin: miter; stroke-miterlimit: 4; is-custom-font: none; font-file-url: none; fill: rgb(72,79,88); fill-rule: nonzero; opacity: 0.429;" transform=" translate(-369, -143)" d="M 364 140 h 10 v 6 h -10 z" stroke-linecap="round"/>
</g>
		<g transform="matrix(1.8182 0 0 1.8182 -27.273 -46.2732)" id="orchestration" clip-path="url(#CLIPPATH_39)">
<clipPath id="CLIPPATH_39">
	<rect transform="matrix(1 0 0 1 15 10)" id="scanClip" x="-250" y="-150" rx="0" ry="0" width="500" height="300"/>
</clipPath>
<circle style="stroke: rgb(167,139,250); stroke-width: 1.2; stroke-dasharray: none; stroke-linecap: round; stroke-dashoffset: 0; stroke-linejoin: round; stroke-miterlimit: 4; is-custom-font: none; font-file-url: none; fill: none; fill-rule: nonzero; opacity: 0.55;" cx="0" cy="0" r="74"/>
</g>
		<g transform="matrix(1.8182 0 0 1.8182 -27.273 -46.2732)" id="orchestration" clip-path="url(#CLIPPATH_40)">
<clipPath id="CLIPPATH_40">
	<rect transform="matrix(1 0 0 1 15 10)" id="scanClip" x="-250" y="-150" rx="0" ry="0" width="500" height="300"/>
</clipPath>
<circle style="stroke: rgb(167,139,250); stroke-width: 1.2; stroke-dasharray: none; stroke-linecap: round; stroke-dashoffset: 0; stroke-linejoin: round; stroke-miterlimit: 4; is-custom-font: none; font-file-url: none; fill: none; fill-rule: nonzero; opacity: 0.55;" cx="0" cy="0" r="52"/>
</g>
		<g transform="matrix(1.8182 0 0 1.8182 27.273 -83.0711)" id="orchestration" clip-path="url(#CLIPPATH_41)">
<clipPath id="CLIPPATH_41">
	<rect transform="matrix(1 0 0 1 -15 30.2386)" id="scanClip" x="-250" y="-150" rx="0" ry="0" width="500" height="300"/>
</clipPath>
<path style="stroke: rgb(167,139,250); stroke-width: 1.2; stroke-dasharray: none; stroke-linecap: round; stroke-dashoffset: 0; stroke-linejoin: round; stroke-miterlimit: 4; is-custom-font: none; font-file-url: none; fill: none; fill-rule: nonzero; opacity: 0.55;" transform=" translate(-265, -119.7614)" d="M 210 132 C 250 108 282 104 320 110" stroke-linecap="round"/>
</g>
		<g transform="matrix(1.8182 0 0 1.8182 27.273 11.9092)" id="orchestration" clip-path="url(#CLIPPATH_42)">
<clipPath id="CLIPPATH_42">
	<rect transform="matrix(1 0 0 1 -15 -22)" id="scanClip" x="-250" y="-150" rx="0" ry="0" width="500" height="300"/>
</clipPath>
<path style="stroke: rgb(167,139,250); stroke-width: 1.2; stroke-dasharray: none; stroke-linecap: round; stroke-dashoffset: 0; stroke-linejoin: round; stroke-miterlimit: 4; is-custom-font: none; font-file-url: none; fill: none; fill-rule: nonzero; opacity: 0.55;" transform=" translate(-265, -172)" d="M 214 150 C 252 170 284 184 316 194" stroke-linecap="round"/>
</g>
		<g transform="matrix(1.8182 0 0 1.8182 60.0006 -20.3875)" id="orchestration" clip-path="url(#CLIPPATH_43)">
<clipPath id="CLIPPATH_43">
	<rect transform="matrix(1 0 0 1 -33 -4.237)" id="scanClip" x="-250" y="-150" rx="0" ry="0" width="500" height="300"/>
</clipPath>
<path style="stroke: rgb(167,139,250); stroke-width: 1.2; stroke-dasharray: none; stroke-linecap: round; stroke-dashoffset: 0; stroke-linejoin: round; stroke-miterlimit: 4; is-custom-font: none; font-file-url: none; fill: none; fill-rule: nonzero; opacity: 0.55;" transform=" translate(-283, -154.237)" d="M 232 162 C 274 174 300 160 334 142" stroke-linecap="round"/>
</g>
		<g transform="matrix(1.8182 0 0 1.8182 149.0924 -100.8192)" id="agents">
<circle style="stroke: none; stroke-width: 1; stroke-dasharray: none; stroke-linecap: butt; stroke-dashoffset: 0; stroke-linejoin: miter; stroke-miterlimit: 4; is-custom-font: none; font-file-url: none; fill: rgb(33,38,45); fill-rule: nonzero; opacity: 1;" cx="0" cy="0" r="12"/>
</g>
		<g transform="matrix(1.8182 0 0 1.8182 149.0924 -100.8192)" id="agents">
<circle style="stroke: none; stroke-width: 1; stroke-dasharray: none; stroke-linecap: butt; stroke-dashoffset: 0; stroke-linejoin: miter; stroke-miterlimit: 4; is-custom-font: none; font-file-url: none; fill: rgb(139,92,246); fill-rule: nonzero; opacity: 0.95;" cx="0" cy="0" r="6"/>
</g>
		<g transform="matrix(1.8182 0 0 1.8182 220.0022 -100.8192)" id="agents">
<path style="stroke: rgb(48,54,61); stroke-width: 1; stroke-dasharray: none; stroke-linecap: butt; stroke-dashoffset: 0; stroke-linejoin: miter; stroke-miterlimit: 4; is-custom-font: none; font-file-url: none; fill: none; fill-rule: nonzero; opacity: 0.8;" transform=" translate(-371, -110)" d="M 348 110 h 46" stroke-linecap="round"/>
</g>
		<g transform="matrix(1.8182 0 0 1.8182 316.3668 -100.8192)" id="agents">
<rect style="stroke: none; stroke-width: 1; stroke-dasharray: none; stroke-linecap: butt; stroke-dashoffset: 0; stroke-linejoin: miter; stroke-miterlimit: 4; is-custom-font: none; font-file-url: none; fill: rgb(33,38,45); fill-rule: nonzero; opacity: 0.9;" x="-26" y="-6" rx="6" ry="6" width="52" height="12"/>
</g>
		<g transform="matrix(1.8182 0 0 1.8182 301.8212 -100.8192)" id="agents">
<rect style="stroke: none; stroke-width: 1; stroke-dasharray: none; stroke-linecap: butt; stroke-dashoffset: 0; stroke-linejoin: miter; stroke-miterlimit: 4; is-custom-font: none; font-file-url: none; fill: rgb(48,54,61); fill-rule: nonzero; opacity: 0.9;" x="-12" y="-2" rx="2" ry="2" width="24" height="4"/>
</g>
		<g transform="matrix(1.8182 0 0 1.8182 341.8216 -100.8192)" id="agents">
<rect style="stroke: none; stroke-width: 1; stroke-dasharray: none; stroke-linecap: butt; stroke-dashoffset: 0; stroke-linejoin: miter; stroke-miterlimit: 4; is-custom-font: none; font-file-url: none; fill: rgb(48,54,61); fill-rule: nonzero; opacity: 0.65;" x="-6" y="-2" rx="2" ry="2" width="12" height="4"/>
</g>
		<g transform="matrix(1.8182 0 0 1.8182 134.5468 51.9096)" id="agents">
<circle style="stroke: none; stroke-width: 1; stroke-dasharray: none; stroke-linecap: butt; stroke-dashoffset: 0; stroke-linejoin: miter; stroke-miterlimit: 4; is-custom-font: none; font-file-url: none; fill: rgb(33,38,45); fill-rule: nonzero; opacity: 1;" cx="0" cy="0" r="12"/>
</g>
		<g transform="matrix(1.8182 0 0 1.8182 134.5468 51.9096)" id="agents">
<circle style="stroke: none; stroke-width: 1; stroke-dasharray: none; stroke-linecap: butt; stroke-dashoffset: 0; stroke-linejoin: miter; stroke-miterlimit: 4; is-custom-font: none; font-file-url: none; fill: rgb(139,92,246); fill-rule: nonzero; opacity: 0.95;" cx="0" cy="0" r="6"/>
</g>
		<g transform="matrix(1.8182 0 0 1.8182 200.002 51.9096)" id="agents">
<path style="stroke: rgb(48,54,61); stroke-width: 1; stroke-dasharray: none; stroke-linecap: butt; stroke-dashoffset: 0; stroke-linejoin: miter; stroke-miterlimit: 4; is-custom-font: none; font-file-url: none; fill: none; fill-rule: nonzero; opacity: 0.8;" transform=" translate(-360, -194)" d="M 340 194 h 40" stroke-linecap="round"/>
</g>
		<g transform="matrix(1.8182 0 0 1.8182 303.6394 51.9096)" id="agents">
<rect style="stroke: none; stroke-width: 1; stroke-dasharray: none; stroke-linecap: butt; stroke-dashoffset: 0; stroke-linejoin: miter; stroke-miterlimit: 4; is-custom-font: none; font-file-url: none; fill: rgb(33,38,45); fill-rule: nonzero; opacity: 0.9;" x="-33" y="-6" rx="6" ry="6" width="66" height="12"/>
</g>
		<g transform="matrix(1.8182 0 0 1.8182 289.0938 51.9096)" id="agents">
<rect style="stroke: none; stroke-width: 1; stroke-dasharray: none; stroke-linecap: butt; stroke-dashoffset: 0; stroke-linejoin: miter; stroke-miterlimit: 4; is-custom-font: none; font-file-url: none; fill: rgb(48,54,61); fill-rule: nonzero; opacity: 0.9;" x="-19" y="-2" rx="2" ry="2" width="38" height="4"/>
</g>
		<g transform="matrix(1.8182 0 0 1.8182 340.0034 51.9096)" id="agents">
<rect style="stroke: none; stroke-width: 1; stroke-dasharray: none; stroke-linecap: butt; stroke-dashoffset: 0; stroke-linejoin: miter; stroke-miterlimit: 4; is-custom-font: none; font-file-url: none; fill: rgb(48,54,61); fill-rule: nonzero; opacity: 0.65;" x="-5" y="-2" rx="2" ry="2" width="10" height="4"/>
</g>
		<g transform="matrix(1.8182 0 0 1.8182 174.5472 -42.6368)" id="agents">
<circle style="stroke: none; stroke-width: 1; stroke-dasharray: none; stroke-linecap: butt; stroke-dashoffset: 0; stroke-linejoin: miter; stroke-miterlimit: 4; is-custom-font: none; font-file-url: none; fill: rgb(33,38,45); fill-rule: nonzero; opacity: 1;" cx="0" cy="0" r="12"/>
</g>
		<g transform="matrix(1.8182 0 0 1.8182 174.5472 -42.6368)" id="agents">
<circle style="stroke: none; stroke-width: 1; stroke-dasharray: none; stroke-linecap: butt; stroke-dashoffset: 0; stroke-linejoin: miter; stroke-miterlimit: 4; is-custom-font: none; font-file-url: none; fill: rgb(139,92,246); fill-rule: nonzero; opacity: 0.95;" cx="0" cy="0" r="6"/>
</g>
		<g transform="matrix(1.8182 0 0 1.8182 229.0932 -42.6368)" id="agents">
<path style="stroke: rgb(48,54,61); stroke-width: 1; stroke-dasharray: none; stroke-linecap: butt; stroke-dashoffset: 0; stroke-linejoin: miter; stroke-miterlimit: 4; is-custom-font: none; font-file-url: none; fill: none; fill-rule: nonzero; opacity: 0.8;" transform=" translate(-376, -142)" d="M 362 142 h 28" stroke-linecap="round"/>
</g>
		<g transform="matrix(1.8182 0 0 1.8182 312.7304 -42.6368)" id="agents">
<rect style="stroke: none; stroke-width: 1; stroke-dasharray: none; stroke-linecap: butt; stroke-dashoffset: 0; stroke-linejoin: miter; stroke-miterlimit: 4; is-custom-font: none; font-file-url: none; fill: rgb(33,38,45); fill-rule: nonzero; opacity: 0.9;" x="-28" y="-6" rx="6" ry="6" width="56" height="12"/>
</g>
		<g transform="matrix(1.8182 0 0 1.8182 300.003 -42.6368)" id="agents">
<rect style="stroke: none; stroke-width: 1; stroke-dasharray: none; stroke-linecap: butt; stroke-dashoffset: 0; stroke-linejoin: miter; stroke-miterlimit: 4; is-custom-font: none; font-file-url: none; fill: rgb(48,54,61); fill-rule: nonzero; opacity: 0.9;" x="-15" y="-2" rx="2" ry="2" width="30" height="4"/>
</g>
		<g transform="matrix(1.8182 0 0 1.8182 343.6398 -42.6368)" id="agents">
<rect style="stroke: none; stroke-width: 1; stroke-dasharray: none; stroke-linecap: butt; stroke-dashoffset: 0; stroke-linejoin: miter; stroke-miterlimit: 4; is-custom-font: none; font-file-url: none; fill: rgb(48,54,61); fill-rule: nonzero; opacity: 0.65;" x="-5" y="-2" rx="2" ry="2" width="10" height="4"/>
</g>
		<g transform="matrix(1.8182 0 0 1.8182 -165.4562 109.6375)" id="robot">
<path style="stroke: none; stroke-width: 1; stroke-dasharray: none; stroke-linecap: butt; stroke-dashoffset: 0; stroke-linejoin: miter; stroke-miterlimit: 4; is-custom-font: none; font-file-url: none; fill: rgb(33,38,45); fill-rule: nonzero; opacity: 0.92;" transform=" translate(-159, -225.75)" d="M 118 210 c 22 16 58 16 82 0 v 18 c -26 18 -56 18 -82 0 v -18 z" stroke-linecap="round"/>
</g>
		<g transform="matrix(1.8182 0 0 1.8182 -144.0924 -122.5468)" id="robot">
<path style="stroke: none; stroke-width: 1; stroke-dasharray: none; stroke-linecap: butt; stroke-dashoffset: 0; stroke-linejoin: miter; stroke-miterlimit: 4; is-custom-font: none; font-file-url: none; fill: rgb(33,38,45); fill-rule: nonzero; opacity: 1;" transform=" translate(-168, -92)" d="M 152 92 Q 152 86 158 86 H 178 Q 184 86 184 92 V 98 H 152 V 92 Z" stroke-linecap="round"/>
</g>
		<g transform="matrix(1.8182 0 0 2.6581 -144.0924 -142.8841)" id="robot">
<rect style="stroke: none; stroke-width: 1; stroke-dasharray: none; stroke-linecap: butt; stroke-dashoffset: 0; stroke-linejoin: miter; stroke-miterlimit: 4; is-custom-font: none; font-file-url: none; fill: rgb(33,38,45); fill-rule: nonzero; opacity: 1;" x="-4" y="-7" rx="3" ry="3" width="8" height="14"/>
</g>
		<g transform="matrix(1.8182 0 0 1.8182 -144.0924 -164.4564)" id="robot">
<circle style="stroke: none; stroke-width: 1; stroke-dasharray: none; stroke-linecap: butt; stroke-dashoffset: 0; stroke-linejoin: miter; stroke-miterlimit: 4; is-custom-font: none; font-file-url: none; fill: rgb(33,38,45); fill-rule: nonzero; opacity: 1;" cx="0" cy="0" r="7"/>
</g>
		<g transform="matrix(1.8182 0 0 1.8182 -144.0924 -164.4564)" id="robot">
<circle style="stroke: none; stroke-width: 1; stroke-dasharray: none; stroke-linecap: butt; stroke-dashoffset: 0; stroke-linejoin: miter; stroke-miterlimit: 4; is-custom-font: none; font-file-url: none; fill: rgb(139,92,246); fill-rule: nonzero; opacity: 0.95;" cx="0" cy="0" r="3.2"/>
</g>
		<g transform="matrix(1.8182 0 0 1.8182 -141.8196 -44.455)" id="robot">
<rect style="stroke: none; stroke-width: 1; stroke-dasharray: none; stroke-linecap: butt; stroke-dashoffset: 0; stroke-linejoin: miter; stroke-miterlimit: 4; is-custom-font: none; font-file-url: none; fill: rgb(33,38,45); fill-rule: nonzero; opacity: 1;" x="-46" y="-43" rx="22" ry="22" width="92" height="86"/>
</g>
		<g transform="matrix(1.8182 0 0 1.8182 -224.5478 -44.455)" id="robot">
<path style="stroke: none; stroke-width: 1; stroke-dasharray: none; stroke-linecap: butt; stroke-dashoffset: 0; stroke-linejoin: miter; stroke-miterlimit: 4; is-custom-font: none; font-file-url: none; fill: rgb(33,38,45); fill-rule: nonzero; opacity: 1;" transform=" translate(-121, -141)" d="M 126 120 L 116 128 V 154 L 126 162 Z" stroke-linecap="round"/>
</g>
		<g transform="matrix(1.8182 0 0 1.8182 -59.0914 -44.455)" id="robot">
<path style="stroke: none; stroke-width: 1; stroke-dasharray: none; stroke-linecap: butt; stroke-dashoffset: 0; stroke-linejoin: miter; stroke-miterlimit: 4; is-custom-font: none; font-file-url: none; fill: rgb(33,38,45); fill-rule: nonzero; opacity: 1;" transform=" translate(-223, -141)" d="M 218 120 L 228 128 V 154 L 218 162 Z" stroke-linecap="round"/>
</g>
		<g transform="matrix(2.7924 0 0 2.204 -140.1005 -46.0238)" id="robot">
<path style="stroke: none; stroke-width: 1; stroke-dasharray: none; stroke-linecap: butt; stroke-dashoffset: 0; stroke-linejoin: miter; stroke-miterlimit: 4; is-custom-font: none; font-file-url: none; fill: rgb(13,17,23); fill-rule: nonzero; opacity: 0.72;" transform=" translate(-170.5, -147)" d="M 150 164 V 124 H 171 C 182 124 189 130 189 140 C 189 148 184 154 175 155 L 191 170 H 178 L 164 156 H 159 V 170 H 150 V 164 Z M 159 132 V 148 H 170 C 176 148 180 145 180 140 C 180 135 176 132 170 132 H 159 Z" stroke-linecap="round"/>
</g>
		<g transform="matrix(1.8182 0 0 1.8182 -157.926 -60.546)" id="robot">
<circle style="stroke: none; stroke-width: 1; stroke-dasharray: none; stroke-linecap: butt; stroke-dashoffset: 0; stroke-linejoin: miter; stroke-miterlimit: 4; is-custom-font: none; font-file-url: none; fill: rgb(19,23,29); fill-rule: nonzero; opacity: 0.95;" cx="0" cy="0" r="3.8"/>
</g>
		<g transform="matrix(1.8182 0 0 1.8182 -137.9258 -60.546)" id="robot">
<circle style="stroke: none; stroke-width: 1; stroke-dasharray: none; stroke-linecap: butt; stroke-dashoffset: 0; stroke-linejoin: miter; stroke-miterlimit: 4; is-custom-font: none; font-file-url: none; fill: rgb(19,23,29); fill-rule: nonzero; opacity: 0.95;" cx="0" cy="0" r="3.8"/>
</g>
		<g transform="matrix(1.8182 0 0 1.8182 -58.1824 -39.0004)" id="robot">
<circle style="stroke: none; stroke-width: 1; stroke-dasharray: none; stroke-linecap: butt; stroke-dashoffset: 0; stroke-linejoin: miter; stroke-miterlimit: 4; is-custom-font: none; font-file-url: none; fill: rgb(33,38,45); fill-rule: nonzero; opacity: 1;" cx="0" cy="0" r="7"/>
</g>
		<g transform="matrix(1.8182 0 0 1.8182 -58.1824 -39.0004)" id="robot">
<circle style="stroke: none; stroke-width: 1; stroke-dasharray: none; stroke-linecap: butt; stroke-dashoffset: 0; stroke-linejoin: miter; stroke-miterlimit: 4; is-custom-font: none; font-file-url: none; fill: rgb(139,92,246); fill-rule: nonzero; opacity: 0.95;" cx="0" cy="0" r="3.4"/>
</g>
		<g transform="matrix(1.8182 0 0 1.8182 40.9095 -74.4314)" id="robot">
<path style="stroke: rgb(139,92,246); stroke-width: 1.6; stroke-dasharray: none; stroke-linecap: round; stroke-dashoffset: 0; stroke-linejoin: round; stroke-miterlimit: 4; is-custom-font: none; font-file-url: none; fill: none; fill-rule: nonzero; opacity: 1;" transform=" translate(-272.5, -124.5131)" d="M 225 140 C 255 114 290 106 320 110" stroke-linecap="round"/>
</g>
		<g transform="matrix(1.8182 0 0 1.8182 36.364 11.9093)" id="robot">
<path style="stroke: rgb(139,92,246); stroke-width: 1.6; stroke-dasharray: none; stroke-linecap: round; stroke-dashoffset: 0; stroke-linejoin: round; stroke-miterlimit: 4; is-custom-font: none; font-file-url: none; fill: none; fill-rule: nonzero; opacity: 1;" transform=" translate(-270, -172)" d="M 224 150 C 254 170 286 186 316 194" stroke-linecap="round"/>
</g>
		<g transform="matrix(1.8182 0 0 1.8182 52.7278 -25.4351)" id="robot">
<path style="stroke: rgb(139,92,246); stroke-width: 1.6; stroke-dasharray: none; stroke-linecap: round; stroke-dashoffset: 0; stroke-linejoin: round; stroke-miterlimit: 4; is-custom-font: none; font-file-url: none; fill: none; fill-rule: nonzero; opacity: 1;" transform=" translate(-279, -151.4608)" d="M 224 156 C 266 168 298 156 334 142" stroke-linecap="round"/>
</g>
		<g transform="matrix(1.8182 0 0 1.8182 -133.5468 13.0639)" id="hints">
<path style="stroke: rgb(167,139,250); stroke-width: 1.2; stroke-dasharray: none; stroke-linecap: round; stroke-dashoffset: 0; stroke-linejoin: round; stroke-miterlimit: 4; is-custom-font: none; font-file-url: none; fill: none; fill-rule: nonzero; opacity: 0.495;" transform=" translate(-101, -206)" d="M 92 206 h 18" stroke-linecap="round"/>
</g>
		<g transform="matrix(1.8182 0 0 1.8182 -139.0014 23.9731)" id="hints">
<path style="stroke: rgb(167,139,250); stroke-width: 1.2; stroke-dasharray: none; stroke-linecap: round; stroke-dashoffset: 0; stroke-linejoin: round; stroke-miterlimit: 4; is-custom-font: none; font-file-url: none; fill: none; fill-rule: nonzero; opacity: 0.495;" transform=" translate(-98, -212)" d="M 92 212 h 12" stroke-linecap="round"/>
</g>
		<g transform="matrix(1.8182 0 0 1.8182 -149.9107 13.0639)" id="hints">
<circle style="stroke: none; stroke-width: 1; stroke-dasharray: none; stroke-linecap: butt; stroke-dashoffset: 0; stroke-linejoin: miter; stroke-miterlimit: 4; is-custom-font: none; font-file-url: none; fill: rgb(139,92,246); fill-rule: nonzero; opacity: 0.855;" cx="0" cy="0" r="2.2"/>
</g>
</g>
</g>
</svg>